<svg xmlns="http://www.w3.org/2000/svg" width="64" height="64" viewBox="0 0 64 64" fill="none">
  <title>Lugar seguro</title>

  
  
  <line x1="6" y1="56" x2="58" y2="56" stroke="#3F5440" stroke-width="0.8" stroke-linecap="round" opacity="0.5"></line>
  
  <rect x="16" y="32" width="32" height="24" fill="#A45B44"></rect>
  
  <path d="M12 32 L32 16 L52 32 Z" fill="#6E3A2B"></path>
  <path d="M14 30 L32 18 L50 30" stroke="#8B4A37" stroke-width="0.8" opacity="0.7"></path>
  
  <rect x="40" y="20" width="4" height="6" fill="#8B4A37"></rect>
  
  <path d="M42 18 Q40 14 42 12 Q44 10 42 8" stroke="#F3EDE6" stroke-width="1.4" stroke-linecap="round" fill="none" opacity="0.7"></path>
  
  <path d="M28 56 L28 44 Q28 42 30 42 L34 42 Q36 42 36 44 L36 56" fill="#6E3A2B"></path>
  <circle cx="34" cy="50" r="0.6" fill="#E8A948"></circle>
  
  <rect x="20" y="38" width="6" height="6" fill="#F0C478"></rect>
  <line x1="23" y1="38" x2="23" y2="44" stroke="#6E3A2B" stroke-width="0.6"></line>
  <line x1="20" y1="41" x2="26" y2="41" stroke="#6E3A2B" stroke-width="0.6"></line>
  
  <rect x="18" y="36" width="10" height="10" fill="#F0C478" opacity="0.3"></rect>
  
  <path d="M52 56 L52 48" stroke="#6B8B6A" stroke-width="1.2" stroke-linecap="round"></path>
  <ellipse cx="52" cy="48" rx="2.4" ry="2" fill="#8BA888"></ellipse>
  <circle cx="52" cy="47" r="1.4" fill="#E8A948"></circle>

</svg>