<svg xmlns="http://www.w3.org/2000/svg" width="64" height="64" viewBox="0 0 64 64" fill="none">
  <title>Escaneo corporal</title>

  
  
  <circle cx="32" cy="16" r="6" fill="#6B8B6A"></circle>
  
  <path d="M22 26 Q22 22 32 22 Q42 22 42 26 L42 42 Q38 46 32 46 Q26 46 22 42 Z" fill="#6B8B6A"></path>
  
  <path d="M26 46 L26 56 Q26 58 28 58 L30 58 L30 48" fill="#6B8B6A"></path>
  <path d="M34 48 L34 58 L36 58 Q38 58 38 56 L38 46" fill="#6B8B6A"></path>
  
  <path d="M22 28 Q16 30 14 36 Q14 40 18 40 Q18 32 22 30 Z" fill="#6B8B6A"></path>
  <path d="M42 28 Q48 30 50 36 Q50 40 46 40 Q46 32 42 30 Z" fill="#6B8B6A"></path>
  
  <g fill="#E8A948" opacity="0.9">
    <circle cx="32" cy="16" r="1.4"></circle>
    <circle cx="28" cy="30" r="1.4"></circle>
    <circle cx="36" cy="30" r="1.4"></circle>
    <circle cx="32" cy="40" r="1.4"></circle>
    <circle cx="14" cy="36" r="1.4"></circle>
    <circle cx="50" cy="36" r="1.4"></circle>
    <circle cx="28" cy="52" r="1.4"></circle>
    <circle cx="36" cy="52" r="1.4"></circle>
  </g>
  
  <circle cx="32" cy="34" r="26" stroke="#E8A948" stroke-width="0.8" stroke-dasharray="2 3" fill="none" opacity="0.5"></circle>

</svg>