<svg xmlns="http://www.w3.org/2000/svg" width="64" height="64" viewBox="0 0 64 64" fill="none">
  <title>Decorador/a</title>

  <circle cx="32" cy="32" r="28" fill="#C4725A" opacity="0.15"></circle>
  <circle cx="32" cy="32" r="22" fill="#FAF6F0"></circle>
  <circle cx="32" cy="32" r="22" fill="none" stroke="#C4725A" stroke-width="1.5" stroke-dasharray="2 2" opacity="0.5"></circle>
  
  
  <path d="M32 16 Q18 16 16 30 Q14 44 28 46 Q34 44 34 38 Q34 34 38 34 Q46 34 48 28 Q48 16 32 16 Z" fill="#F3EDE6"></path>
  
  <circle cx="22" cy="24" r="2.4" fill="#C4725A"></circle>
  <circle cx="30" cy="22" r="2.4" fill="#E8A948"></circle>
  <circle cx="40" cy="24" r="2.4" fill="#8BA888"></circle>
  <circle cx="24" cy="34" r="2.4" fill="#8B7EB5"></circle>
  <circle cx="36" cy="32" r="2.4" fill="#C9A0B0"></circle>
  
  <ellipse cx="38" cy="40" rx="2" ry="2.5" fill="#FAF6F0"></ellipse>
  
  <line x1="42" y1="42" x2="50" y2="50" stroke="#6E3A2B" stroke-width="1.4" stroke-linecap="round"></line>
  <path d="M48 48 L52 44 L52 52 L48 50 Z" fill="#C4725A"></path>

  
</svg>