<svg xmlns="http://www.w3.org/2000/svg" width="64" height="64" viewBox="0 0 64 64" fill="none">
  
  <title>Sorpresa · Flor tropical</title>

  <path d="M32 58 Q32 50 32 38" stroke="#6B8B6A" stroke-width="2" stroke-linecap="round"></path>
  <path d="M32 48 Q22 44 18 50 Q24 53 31 50 Z" fill="#6B8B6A"></path>
  <path d="M32 46 Q42 42 46 48 Q40 51 33 48 Z" fill="#8BA888"></path>

  <g transform="translate(32 26)">
    <g transform="rotate(0)">
      <path d="M0 -4 C-7 -10 -8 -17 0 -19 C8 -17 7 -10 0 -4 Z" fill="#D4937E"></path>
      <path d="M0 -8 C-3 -12 -3 -15 0 -17" stroke="#A45B44" stroke-width="0.9" stroke-linecap="round" opacity="0.5"></path>
    </g>
    <g transform="rotate(72)">
      <path d="M0 -4 C-7 -10 -8 -17 0 -19 C8 -17 7 -10 0 -4 Z" fill="#D4937E"></path>
      <path d="M0 -8 C-3 -12 -3 -15 0 -17" stroke="#A45B44" stroke-width="0.9" stroke-linecap="round" opacity="0.5"></path>
    </g>
    <g transform="rotate(144)">
      <path d="M0 -4 C-7 -10 -8 -17 0 -19 C8 -17 7 -10 0 -4 Z" fill="#D4937E"></path>
    </g>
    <g transform="rotate(216)">
      <path d="M0 -4 C-7 -10 -8 -17 0 -19 C8 -17 7 -10 0 -4 Z" fill="#D4937E"></path>
    </g>
    <g transform="rotate(288)">
      <path d="M0 -4 C-7 -10 -8 -17 0 -19 C8 -17 7 -10 0 -4 Z" fill="#D4937E"></path>
      <path d="M0 -8 C-3 -12 -3 -15 0 -17" stroke="#A45B44" stroke-width="0.9" stroke-linecap="round" opacity="0.5"></path>
    </g>
  </g>

  <circle cx="32" cy="26" r="3.2" fill="#A45B44"></circle>
  
  <path d="M32 26 Q33 18 31 11" stroke="#E8A948" stroke-width="1.4" stroke-linecap="round"></path>
  <circle cx="31" cy="11" r="1.4" fill="#E8A948"></circle>
  <circle cx="29.5" cy="13" r="0.9" fill="#F0C478"></circle>
  <circle cx="32.5" cy="9.5" r="0.9" fill="#F0C478"></circle>
</svg>