<svg xmlns="http://www.w3.org/2000/svg" width="64" height="64" viewBox="0 0 64 64" fill="none">
  <title>Pájaro</title>

  
  <ellipse cx="32" cy="36" rx="12" ry="11" fill="#7E9EB5"></ellipse>
  
  <path d="M22 40 Q32 48 42 40 Q40 46 32 47 Q24 46 22 40 Z" fill="#FAF6F0"></path>
  
  <circle cx="38" cy="28" r="9" fill="#7E9EB5"></circle>
  
  <path d="M34 24 Q38 22 42 24" stroke="#5C7E96" stroke-width="1" stroke-linecap="round" opacity="0.5"></path>
  
  <circle cx="40" cy="28" r="1.6" fill="#1C1917"></circle>
  <circle cx="40.4" cy="27.5" r="0.5" fill="#FAF6F0"></circle>
  
  <path d="M46 30 L52 30 L48 33 Z" fill="#E8A948"></path>
  
  <path d="M22 32 Q26 28 32 32 Q34 40 28 42 Q22 40 22 32 Z" fill="#5C7E96"></path>
  <path d="M26 36 Q30 36 32 38" stroke="#FAF6F0" stroke-width="0.6" opacity="0.6"></path>
  
  <path d="M18 38 L8 36 L10 40 L18 40 Z" fill="#5C7E96"></path>
  
  <line x1="28" y1="46" x2="28" y2="52" stroke="#D49330" stroke-width="1.2" stroke-linecap="round"></line>
  <line x1="34" y1="46" x2="34" y2="52" stroke="#D49330" stroke-width="1.2" stroke-linecap="round"></line>
  <path d="M26 52 L30 52 M28 52 L28 54" stroke="#D49330" stroke-width="0.8" stroke-linecap="round"></path>
  <path d="M32 52 L36 52 M34 52 L34 54" stroke="#D49330" stroke-width="0.8" stroke-linecap="round"></path>

</svg>