<svg xmlns="http://www.w3.org/2000/svg" width="64" height="64" viewBox="0 0 64 64" fill="none">
  <title>Arcoíris emocional</title>

  <circle cx="32" cy="32" r="28" fill="#C4725A" opacity="0.15"></circle>
  <circle cx="32" cy="32" r="22" fill="#FAF6F0"></circle>
  <circle cx="32" cy="32" r="22" fill="none" stroke="#C4725A" stroke-width="1.5" stroke-dasharray="2 2" opacity="0.5"></circle>
  
  
  <g fill="none" stroke-width="3" stroke-linecap="round">
    <path d="M14 44 Q32 18 50 44" stroke="#A45B44"></path>
    <path d="M16 44 Q32 22 48 44" stroke="#E8A948"></path>
    <path d="M18 44 Q32 26 46 44" stroke="#8BA888"></path>
    <path d="M20 44 Q32 30 44 44" stroke="#7E9EB5"></path>
    <path d="M22 44 Q32 34 42 44" stroke="#8B7EB5"></path>
  </g>
  
  <ellipse cx="14" cy="44" rx="4" ry="2" fill="#FAF6F0"></ellipse>
  <ellipse cx="50" cy="44" rx="4" ry="2" fill="#FAF6F0"></ellipse>
  <ellipse cx="14" cy="46" rx="5" ry="1.5" fill="#F3EDE6"></ellipse>
  <ellipse cx="50" cy="46" rx="5" ry="1.5" fill="#F3EDE6"></ellipse>
  
  <path d="M32 20 Q30 17 28 19 Q28 22 32 25 Q36 22 36 19 Q34 17 32 20 Z" fill="#C9A0B0"></path>

  
</svg>