<svg xmlns="http://www.w3.org/2000/svg" width="1024" height="1024" viewBox="0 0 1024 1024" fill="none">
  
  <defs>
    <radialGradient id="abg" cx="50%" cy="42%" r="68%">
      <stop offset="0%" stop-color="#D4937E"></stop>
      <stop offset="55%" stop-color="#C4725A"></stop>
      <stop offset="100%" stop-color="#A45B44"></stop>
    </radialGradient>
  </defs>

  <rect x="0" y="0" width="1024" height="1024" fill="url(#abg)"></rect>

  
  <g transform="translate(512 540) scale(9.5)">
    <path d="M0 26 Q0 18 0 6" stroke="#FAF6F0" stroke-width="3.4" stroke-linecap="round" stroke-opacity="0.9"></path>
    <path d="M0 17 Q-10 13 -14 17 Q-10 22 -3 20 Q0 19 0 17 Z" fill="#FAF6F0" fill-opacity="0.9"></path>
    <path d="M-10 17 Q-6 18 -2 19" stroke="#C4725A" stroke-width="0.8" stroke-linecap="round" opacity="0.4"></path>

    <g transform="translate(0 -6)">
      <g><path d="M0 -4 C-6 -10 -7 -18 0 -22 C7 -18 6 -10 0 -4 Z" fill="#FAF6F0"></path></g>
      <g transform="rotate(72)"><path d="M0 -4 C-6 -10 -7 -18 0 -22 C7 -18 6 -10 0 -4 Z" fill="#FAF6F0"></path></g>
      <g transform="rotate(144)"><path d="M0 -4 C-6 -10 -7 -18 0 -22 C7 -18 6 -10 0 -4 Z" fill="#FAF6F0" fill-opacity="0.93"></path></g>
      <g transform="rotate(216)"><path d="M0 -4 C-6 -10 -7 -18 0 -22 C7 -18 6 -10 0 -4 Z" fill="#FAF6F0" fill-opacity="0.93"></path></g>
      <g transform="rotate(288)"><path d="M0 -4 C-6 -10 -7 -18 0 -22 C7 -18 6 -10 0 -4 Z" fill="#FAF6F0"></path></g>

      <g opacity="0.28" stroke="#C4725A" stroke-width="1" fill="none" stroke-linecap="round">
        <path d="M0 -8 C-2 -12 -2 -17 0 -20"></path>
        <g transform="rotate(72)"><path d="M0 -8 C-2 -12 -2 -17 0 -20"></path></g>
        <g transform="rotate(144)"><path d="M0 -8 C-2 -12 -2 -17 0 -20"></path></g>
        <g transform="rotate(216)"><path d="M0 -8 C-2 -12 -2 -17 0 -20"></path></g>
        <g transform="rotate(288)"><path d="M0 -8 C-2 -12 -2 -17 0 -20"></path></g>
      </g>

      <circle cx="0" cy="0" r="4.4" fill="#E8A948"></circle>
      <circle cx="-1.4" cy="-1.4" r="1.2" fill="#FAF6F0" opacity="0.7"></circle>
    </g>
  </g>
</svg>